<?xml version="1.0" encoding="iso-8859-1"?>
<!-- Generator: Adobe Illustrator 19.0.0, SVG Export Plug-In . SVG Version: 6.00 Build 0)  -->
<svg version="1.1" id="Layer_1" xmlns="http://www.w3.org/2000/svg" xmlns:xlink="http://www.w3.org/1999/xlink" x="0px" y="0px"
	 viewBox="0 0 512.002 512.002" style="enable-background:new 0 0 512.002 512.002;" xml:space="preserve">
<g>
	<g>
		<path d="M511.572,156.262c0.096-0.293,0.175-0.59,0.238-0.888c0.024-0.111,0.037-0.224,0.057-0.335
			c0.031-0.181,0.061-0.361,0.08-0.543c0.016-0.149,0.023-0.297,0.031-0.446c0.008-0.145,0.013-0.289,0.013-0.433
			c0-0.163-0.004-0.325-0.013-0.488c-0.007-0.132-0.02-0.263-0.033-0.394c-0.017-0.167-0.034-0.333-0.061-0.499
			c-0.022-0.134-0.053-0.265-0.081-0.398c-0.034-0.158-0.062-0.316-0.104-0.473c-0.074-0.273-0.163-0.542-0.264-0.807
			c-0.039-0.101-0.086-0.198-0.129-0.297c-0.081-0.191-0.165-0.379-0.26-0.564c-0.018-0.035-0.031-0.072-0.049-0.107L442.735,21.597
			c-0.087-0.163-0.185-0.32-0.283-0.477c-0.048-0.079-0.092-0.162-0.143-0.238c-0.045-0.068-0.098-0.132-0.145-0.199
			c-0.111-0.158-0.222-0.315-0.342-0.463c-0.028-0.034-0.059-0.065-0.087-0.099c-0.146-0.175-0.296-0.345-0.454-0.506
			c-0.035-0.036-0.074-0.069-0.11-0.104c-0.155-0.152-0.313-0.3-0.478-0.439c-0.056-0.047-0.116-0.09-0.174-0.136
			c-0.15-0.119-0.301-0.236-0.458-0.345c-0.078-0.054-0.16-0.103-0.24-0.155c-0.143-0.092-0.286-0.182-0.434-0.265
			c-0.095-0.054-0.193-0.103-0.291-0.153c-0.14-0.072-0.281-0.141-0.425-0.204c-0.107-0.047-0.214-0.091-0.323-0.134
			c-0.144-0.057-0.289-0.109-0.436-0.158c-0.112-0.037-0.225-0.074-0.34-0.107c-0.151-0.043-0.303-0.08-0.456-0.115
			c-0.082-0.019-0.16-0.045-0.243-0.061L351.539,0.171c-0.555-0.111-1.109-0.171-1.672-0.171h-179.2
			c-0.512,0-1.024,0.051-1.527,0.145L75.272,17.213c-0.016,0.003-0.031,0.008-0.047,0.011c-0.213,0.04-0.423,0.091-0.632,0.147
			c-0.21,0.056-0.414,0.122-0.616,0.193c-0.083,0.029-0.167,0.054-0.249,0.086c-0.166,0.064-0.326,0.137-0.487,0.21
			c-0.078,0.036-0.156,0.069-0.233,0.107c-0.151,0.075-0.297,0.156-0.443,0.239c-0.086,0.049-0.173,0.099-0.257,0.151
			c-0.128,0.079-0.253,0.162-0.376,0.248c-0.103,0.071-0.204,0.145-0.305,0.221c-0.099,0.076-0.197,0.152-0.292,0.232
			c-0.124,0.103-0.244,0.211-0.362,0.321c-0.066,0.062-0.133,0.123-0.198,0.188c-0.144,0.143-0.282,0.294-0.417,0.448
			c-0.034,0.04-0.07,0.078-0.104,0.118c-0.159,0.19-0.311,0.388-0.455,0.594c-0.006,0.009-0.013,0.017-0.019,0.026
			c-0.184,0.265-0.358,0.537-0.514,0.827l-68.267,128c-0.028,0.053-0.048,0.11-0.075,0.163c-0.064,0.126-0.119,0.254-0.176,0.383
			c-0.067,0.15-0.138,0.299-0.196,0.452c-0.038,0.101-0.066,0.206-0.1,0.308c-0.104,0.311-0.19,0.625-0.257,0.944
			c-0.029,0.138-0.061,0.275-0.083,0.414c-0.024,0.15-0.039,0.3-0.055,0.451c-0.017,0.156-0.031,0.311-0.039,0.468
			c-0.007,0.137-0.01,0.273-0.011,0.409c-0.001,0.183,0.006,0.365,0.017,0.548c0.007,0.113,0.012,0.225,0.024,0.338
			c0.024,0.237,0.06,0.472,0.104,0.707c0.011,0.06,0.018,0.121,0.031,0.182c0.127,0.609,0.324,1.208,0.59,1.789
			c0.008,0.018,0.014,0.038,0.022,0.056c0.028,0.06,0.064,0.114,0.092,0.172c0.095,0.193,0.195,0.384,0.306,0.572
			c0.071,0.121,0.148,0.237,0.225,0.354c0.051,0.078,0.095,0.158,0.149,0.235l247.365,349.723c0.032,0.048,0.067,0.094,0.1,0.142
			l0.001,0.002c0,0.001,0.001,0.001,0.002,0.002c0.076,0.108,0.159,0.213,0.241,0.317c0.052,0.066,0.099,0.136,0.152,0.201
			c0.063,0.077,0.132,0.148,0.198,0.223c0.045,0.051,0.091,0.099,0.138,0.149c0.133,0.143,0.269,0.282,0.412,0.416
			c0.056,0.052,0.112,0.104,0.17,0.155c0.046,0.041,0.092,0.08,0.139,0.12c0.189,0.16,0.386,0.311,0.591,0.455
			c0.053,0.038,0.103,0.08,0.158,0.117c0.014,0.009,0.028,0.019,0.042,0.028c0.249,0.165,0.507,0.32,0.777,0.46
			c0.048,0.025,0.1,0.045,0.149,0.07c0.016,0.008,0.034,0.015,0.05,0.023c0.081,0.04,0.164,0.075,0.246,0.112
			c0.122,0.055,0.24,0.116,0.365,0.166c0.019,0.008,0.038,0.012,0.057,0.019c0.104,0.04,0.211,0.072,0.316,0.108
			c0.06,0.021,0.119,0.042,0.179,0.061c0.045,0.014,0.088,0.032,0.133,0.045c0.093,0.028,0.187,0.052,0.28,0.076
			c0.103,0.027,0.206,0.051,0.311,0.074c0.171,0.038,0.342,0.072,0.513,0.1c0.058,0.009,0.117,0.018,0.175,0.026
			c0.078,0.011,0.156,0.023,0.235,0.031c0.311,0.034,0.622,0.056,0.931,0.056c0,0,0.001,0,0.002,0c0.001,0,0.001,0,0.002,0
			c0.001,0,0.002,0,0.002,0c0.001,0,0.001,0,0.002,0c0.309,0,0.62-0.022,0.932-0.056c0.078-0.009,0.155-0.02,0.233-0.031
			c0.059-0.008,0.118-0.017,0.177-0.026c0.172-0.027,0.344-0.062,0.516-0.1c0.102-0.023,0.203-0.046,0.304-0.072
			c0.095-0.025,0.189-0.049,0.284-0.077c0.045-0.013,0.088-0.031,0.133-0.045c0.062-0.02,0.124-0.042,0.187-0.064
			c0.102-0.035,0.205-0.066,0.306-0.104c0.02-0.008,0.04-0.013,0.06-0.021c0.126-0.05,0.243-0.111,0.365-0.166
			c0.083-0.037,0.165-0.072,0.246-0.112c0.029-0.014,0.061-0.026,0.09-0.041c0.03-0.015,0.061-0.026,0.091-0.041
			c0.276-0.143,0.54-0.301,0.795-0.47c0.015-0.01,0.03-0.02,0.045-0.03c0.049-0.033,0.093-0.071,0.141-0.105
			c0.211-0.148,0.415-0.304,0.609-0.47c0.044-0.037,0.087-0.074,0.13-0.112c0.059-0.052,0.116-0.104,0.174-0.158
			c0.146-0.137,0.285-0.279,0.42-0.425c0.041-0.044,0.083-0.088,0.123-0.133c0.068-0.077,0.139-0.15,0.205-0.229
			c0.053-0.064,0.1-0.134,0.152-0.201c0.12-0.155,0.24-0.31,0.349-0.472l247.359-349.714c0.058-0.081,0.104-0.167,0.159-0.25
			c0.071-0.109,0.143-0.217,0.21-0.33c0.118-0.199,0.225-0.401,0.325-0.606c0.024-0.05,0.055-0.096,0.079-0.147
			c0.008-0.016,0.012-0.033,0.02-0.049c0.128-0.278,0.242-0.56,0.337-0.846C511.562,156.285,511.568,156.273,511.572,156.262z
			 M343.43,68.267l15.228,53.298l14.027,49.102H140.112l36.571-102.4H343.43z M371.456,187.734L256,480.221L140.544,187.734H371.456
			z M121.738,186.586l100.303,254.1L28.121,166.525L121.738,186.586z M390.262,186.586l93.617-20.061L289.96,440.684
			L390.262,186.586z M390.011,169.181L360.187,64.793l71.083-28.424l59.341,111.258L390.011,169.181z M171.434,17.067h177.587
			l56.366,11.27l-57.159,22.864H172.153l-62.826-22.846L171.434,17.067z M80.848,36.155l78.925,28.698l-13.539,37.92l-23.757,66.519
			L21.387,147.626L80.848,36.155z"/>
	</g>
</g>
<g>
</g>
<g>
</g>
<g>
</g>
<g>
</g>
<g>
</g>
<g>
</g>
<g>
</g>
<g>
</g>
<g>
</g>
<g>
</g>
<g>
</g>
<g>
</g>
<g>
</g>
<g>
</g>
<g>
</g>
</svg>
